<svg version="1.1" id="Layer_1" xmlns="http://www.w3.org/2000/svg" xmlns:xlink="http://www.w3.org/1999/xlink" x="0px" y="0px"
	 width="100%" viewBox="0 0 1024 1024" enable-background="new 0 0 1024 1024" xml:space="preserve">
<path fill="#C6DFEF" opacity="1.000000" stroke="none"
	d="
M208.585663,147.559586
	C246.757553,116.760117 288.380188,92.532463 333.696564,74.792763
	C376.436859,58.061512 420.717957,47.816498 466.495331,43.749359
	C492.627014,41.427662 518.718323,41.162315 544.839661,42.938641
	C601.219238,46.772606 655.238159,60.159824 706.860657,83.248917
	C762.263367,108.028740 811.314453,141.939957 853.716614,185.340164
	C892.387878,224.921768 923.155029,269.934448 946.049927,320.384064
	C963.729614,359.341614 975.542908,399.992950 981.848755,442.204376
	C986.711670,474.756714 987.094360,507.541443 985.399353,540.405518
	C983.334961,580.429688 975.524536,619.316223 962.855835,657.219116
	C941.682190,720.567444 907.949707,776.502808 862.571167,825.492920
	C807.044983,885.438110 740.299072,927.899597 662.963867,953.880615
	C634.470947,963.452820 605.233765,970.092224 575.471619,974.026001
	C545.700195,977.960938 515.743530,978.544983 485.717560,977.403015
	C446.203125,975.900085 407.647339,969.076050 369.874115,957.620789
	C288.836609,933.044922 219.152802,889.913147 161.044144,828.419006
	C111.388786,775.870483 75.719452,714.991394 54.436543,645.748657
	C46.144932,618.772400 40.095230,591.340210 37.090439,563.320068
	C33.567513,530.468201 33.244774,497.552948 36.396416,464.592499
	C39.531216,431.808197 46.086533,399.749329 56.129295,368.448517
	C67.934074,331.655914 84.145828,296.850677 104.775558,264.124390
	C132.843658,219.598099 167.409988,180.878265 208.585663,147.559586
M271.653442,646.895691
	C271.435028,645.319641 272.076294,644.042236 273.648895,644.030151
	C283.479889,643.954407 293.607880,641.822205 301.557770,650.742004
	C312.969452,663.546021 324.990906,675.804688 336.527161,688.500610
	C339.909119,692.222595 343.425110,694.084656 348.608887,694.068115
	C398.273987,693.909668 447.939819,693.971130 497.605438,693.960266
	C499.258850,693.959900 501.136932,694.339233 502.441956,693.174194
	C509.520966,686.855042 515.792053,679.953369 515.892395,669.691650
	C516.021057,656.526428 515.844360,643.357971 516.000000,630.193298
	C516.040894,626.733032 514.926270,624.288757 512.401367,621.917480
	C504.020538,614.046631 503.094208,605.551208 509.224518,596.026245
	C512.921692,590.281738 512.857666,588.917114 508.239624,583.826172
	C497.146606,571.597107 483.246948,563.505554 468.272827,557.101440
	C455.147827,551.488159 441.323334,548.184814 427.113129,548.478210
	C405.434052,548.925781 386.869232,557.778320 370.764648,572.044739
	C369.539795,573.129761 368.447144,574.569153 366.413330,573.624634
	C364.831665,571.173828 366.413971,569.185547 367.509735,567.204468
	C375.201202,553.299011 387.264221,543.911682 400.583923,536.072754
	C417.240143,526.270203 435.547577,521.841553 454.740387,520.790466
	C456.817902,520.676636 458.972839,520.871765 460.719482,519.192383
	C459.465851,517.694763 457.969238,517.520569 456.499817,517.412781
	C429.823334,515.455017 405.219574,520.596252 384.262939,538.401855
	C382.639740,539.781006 381.062561,541.901062 378.121185,541.025940
	C378.121185,540.211121 377.991241,539.543823 378.150696,538.954773
	C378.409637,537.998230 378.771027,537.046204 379.239502,536.172974
	C388.703369,518.531799 402.795715,506.347809 421.730621,499.626007
	C439.766937,493.223175 458.696198,493.472443 477.350281,491.980957
	C491.935638,490.814789 506.340820,489.224121 520.479614,485.278625
	C550.774231,476.824738 577.336182,462.061279 599.188660,439.257477
	C621.858337,415.600952 635.501648,387.874878 636.771851,354.697205
	C636.952209,349.987061 636.796875,345.264099 636.796875,340.547058
	C633.166443,354.349030 629.479309,367.857910 624.329834,380.991302
	C613.692993,408.120209 597.259949,430.817566 574.112183,448.665771
	C546.228455,470.165710 513.863098,480.068085 479.702698,484.858551
	C459.859802,487.641205 439.808105,488.836456 420.129364,492.989594
	C409.349121,495.264740 398.915375,498.347351 388.952942,503.078796
	C362.427582,515.676270 344.981934,536.944519 331.882019,562.446350
	C330.252655,565.618347 329.353394,569.274048 326.581940,571.799255
	C323.593567,570.758606 323.762878,568.599426 324.235260,566.397766
	C325.171906,562.032166 325.658539,557.567078 326.366669,553.187134
	C328.904083,537.492371 333.417908,522.467346 340.039307,508.106628
	C349.599030,487.373077 363.364380,470.295288 383.513367,458.695862
	C403.826416,447.001984 426.158478,443.531982 448.949066,441.730774
	C454.655609,441.279785 460.017395,439.584869 465.613068,438.509521
	C462.356720,436.694244 458.981628,436.206665 455.522461,436.308502
	C443.576324,436.660278 431.684570,436.090179 419.680115,437.767700
	C397.909149,440.809906 378.942902,449.055786 362.377899,463.419128
	C345.624420,477.945892 334.419830,496.270477 325.210083,516.065308
	C324.402466,517.801147 324.034790,520.018921 320.809052,520.268250
	C317.814758,510.345642 321.542206,501.046051 324.199280,491.976135
	C336.044647,451.541748 362.853485,425.437347 402.648895,412.023712
	C399.283722,412.068390 396.094330,412.183746 393.131683,413.063141
	C366.824127,420.872162 345.833252,436.156982 329.761475,458.353699
	C317.932831,474.690308 310.578735,493.247925 302.914825,511.671539
	C292.541595,536.607971 278.713959,559.077515 256.922211,575.861328
	C246.925797,583.560486 235.669418,588.126160 223.245789,589.957581
	C221.737244,590.179932 220.080521,590.363159 219.281784,588.707520
	C218.401321,586.882385 219.935349,586.011780 221.139709,585.143005
	C221.947601,584.560242 222.838654,584.093933 223.682724,583.560059
	C236.227539,575.625610 246.922440,565.832458 255.095306,553.296082
	C266.691711,535.508423 272.897736,515.428467 279.369232,495.574707
	C286.797302,472.786316 296.930908,451.689514 313.506226,434.210114
	C332.004883,414.702454 354.215332,401.835938 381.154633,397.563416
	C386.790009,396.669678 392.561615,396.403412 398.095886,394.853119
	C375.752533,390.226227 355.084717,394.920258 335.657776,406.173889
	C319.843781,415.334625 307.786163,428.757965 295.501312,441.910034
	C293.902954,443.621185 292.894653,446.214081 288.331390,446.233429
	C293.662079,426.312500 301.767059,408.702789 315.413879,393.912201
	C345.889343,360.882385 381.470123,360.872803 419.959167,378.919098
	C419.083069,376.150604 417.299713,375.369324 415.891022,374.307312
	C403.022949,364.606049 388.699554,359.068726 372.602509,356.648529
	C361.132935,354.924072 350.183838,355.967407 339.654266,359.163391
	C310.297882,368.073761 292.223267,388.858429 282.406494,417.227356
	C276.707489,433.696594 272.217224,450.594299 266.240173,466.954773
	C256.256500,494.282166 239.934570,516.896301 214.646149,532.309875
	C202.444290,539.747009 189.290436,543.831909 174.972336,543.970886
	C172.599548,543.993896 169.945908,544.471558 168.510147,541.816162
	C169.229538,539.553589 171.115753,539.106079 172.723999,538.292053
	C198.270645,525.362000 216.499298,505.572968 227.900650,479.391357
	C234.547028,464.128876 238.133316,447.903870 242.701965,431.995239
	C249.067490,409.829529 258.031891,389.128601 274.176300,372.080536
	C288.886597,356.546875 306.304321,345.618500 327.318756,341.335052
	C345.602783,337.608124 363.723358,339.745300 381.486053,345.169220
	C386.076996,346.571045 390.654938,348.015594 395.238861,349.440552
	C382.905426,341.018860 369.781494,335.467773 354.773560,333.833740
	C343.993988,332.660065 333.269135,332.352112 323.025391,334.804291
	C297.747681,340.855408 277.448212,355.263885 260.883606,375.114471
	C259.683197,376.553009 259.030457,378.788452 256.000427,378.682465
	C254.739487,373.850647 257.179413,369.716156 258.786407,365.575684
	C266.344543,346.101837 278.195526,329.991974 296.249664,318.937775
	C313.785217,308.201141 332.882629,306.786255 352.625458,309.904938
	C373.714386,313.236237 392.031311,322.539856 408.357117,336.109222
	C422.531616,347.890503 433.072601,362.579437 442.529755,378.171204
	C443.645172,380.010132 444.798950,381.825775 445.934967,383.652222
	C446.526978,382.641876 446.571747,381.964935 446.364716,381.376587
	C441.862915,368.581482 435.981903,356.513031 427.413483,345.893982
	C398.348663,309.873230 360.725098,293.197388 314.697723,298.470367
	C278.512115,302.615814 252.811523,323.298737 234.873672,354.361908
	C222.733810,375.384674 218.197021,399.039093 211.222015,421.856049
	C204.834290,442.751831 194.375519,461.285034 178.880112,476.813263
	C176.982315,478.715057 174.966599,480.821838 171.910248,480.903320
	C170.855637,477.316132 170.732239,477.257751 172.211334,474.131683
	C181.287994,454.947998 186.530334,434.545593 190.367828,413.853912
	C192.901321,400.193359 194.798065,386.433075 198.578232,373.021606
	C205.741074,347.608856 218.215424,325.460144 238.298279,307.954376
	C262.169189,287.146637 290.811890,279.135437 321.602386,278.570496
	C332.182465,278.376373 343.051880,279.753296 353.627411,282.530334
	C369.228943,286.627136 383.875732,292.514923 397.185181,301.678558
	C407.916718,309.067291 417.272491,317.960419 426.068176,327.540039
	C420.083801,316.152222 412.787872,305.782166 402.538208,297.813477
	C382.855377,282.510895 361.357910,272.287018 335.776123,270.756744
	C313.018768,269.395416 290.938538,270.837067 269.745667,279.503540
	C231.281982,295.232605 206.360809,323.540497 193.323914,362.716125
	C189.341797,374.682312 186.502396,386.934753 183.783112,399.226105
	C183.264542,401.569977 183.136337,404.194366 180.481308,405.646454
	C176.049896,402.797607 178.215622,398.310699 177.519867,394.644043
	C173.792892,375.002350 177.001099,355.895386 182.632050,337.133850
	C192.030350,305.820190 211.357056,282.297058 239.906158,266.498993
	C262.306152,254.103622 286.241669,247.118683 311.959167,245.434326
	C330.875061,244.195435 349.384155,244.626404 367.550842,250.419662
	C411.035309,264.286621 438.601196,293.783722 452.420593,336.798401
	C454.875366,344.439301 457.036682,352.151825 458.418091,360.114777
	C457.667725,352.402924 457.790955,344.742554 456.300110,337.035553
	C452.737793,318.620178 445.378265,301.963318 433.451324,287.825012
	C405.388458,254.559082 368.865173,238.650986 325.597015,238.280334
	C310.813416,238.153687 295.963501,238.506256 281.402130,241.880447
	C279.639771,242.288803 277.410828,242.934128 276.013855,240.015244
	C282.128632,235.141174 289.412384,232.798706 296.715027,230.968094
	C315.390045,226.286667 334.148651,224.554413 353.522522,227.425095
	C380.915009,231.483917 405.475494,241.449753 426.490906,259.349854
	C459.465759,287.436584 473.090942,324.145630 471.698181,366.656036
	C471.295013,378.960480 470.039520,391.082855 471.936890,403.431610
	C473.412506,413.035736 481.215668,422.038849 490.818115,423.848053
	C503.467102,426.231354 514.897400,422.817352 525.758667,417.081512
	C546.832764,405.952301 558.488770,386.889252 567.557983,365.893860
	C576.785095,344.533020 583.491333,322.181061 592.858826,300.871765
	C603.825317,275.925049 618.369751,253.636047 641.440979,238.147873
	C658.064087,226.988449 675.568054,222.532043 694.318054,233.467224
	C699.274109,236.357620 704.562805,237.804550 710.445679,237.986588
	C718.051575,238.221924 725.068970,240.879150 731.137878,245.673615
	C735.842957,249.390701 738.110962,254.670578 736.527161,259.179230
	C729.157532,255.154968 721.124207,256.488800 713.228943,256.229553
	C707.910767,256.054932 704.370972,258.501678 701.805115,262.831390
	C698.242859,268.842682 694.906677,274.970520 691.956421,281.314484
	C691.002380,283.365936 690.515564,286.082855 688.034973,286.852997
	C685.046875,287.780701 685.516296,289.704529 685.735474,291.967468
	C686.848633,303.459106 692.386230,313.119171 698.424316,322.512695
	C705.890015,334.126953 714.211914,345.193359 719.952454,357.875366
	C726.167236,371.605255 729.980225,385.804565 731.542847,400.900055
	C732.825989,413.295258 732.590332,425.554321 730.721558,437.639038
	C728.295349,453.328156 722.671631,468.119781 714.331238,481.783142
	C695.260376,513.025208 668.227844,534.253479 633.773926,546.297607
	C616.032410,552.499634 597.468140,555.633423 579.534790,561.120300
	C564.709534,565.656067 550.770325,571.582092 540.277466,583.641174
	C536.222839,588.301025 536.046143,589.933838 539.619324,594.909973
	C545.900513,603.657410 545.765930,612.732971 538.619568,620.823792
	C534.893127,625.042664 533.925110,629.855957 533.853149,635.034119
	C533.732666,643.698059 534.085144,652.372437 533.810181,661.028809
	C533.660278,665.750854 534.128174,670.276306 535.129089,674.865295
	C536.027405,678.984314 538.145569,680.082581 541.959290,678.780334
	C544.076538,678.057434 545.689880,676.676331 547.340576,675.248962
	C558.302124,665.770752 569.083374,656.065491 580.362061,646.978638
	C589.426697,639.675598 599.062805,633.079712 607.896790,625.463379
	C611.955566,621.964111 613.285034,616.579163 611.370605,611.397339
	C609.407288,606.083191 603.357361,602.305237 596.552734,602.144226
	C591.994263,602.036377 586.528137,605.448425 584.917236,609.407227
	C583.116882,613.831787 586.393677,619.719177 590.609924,619.319946
	C592.712646,619.120911 595.229797,617.551086 595.562134,621.043762
	C595.806519,623.612305 593.918274,625.319946 591.465210,626.049744
	C586.464783,627.537476 580.398438,624.811951 577.701050,620.330627
	C571.616333,610.221680 577.656677,599.944824 586.427429,595.313416
	C598.437134,588.971619 615.446533,595.126160 620.367615,608.627808
	C621.649719,612.145447 623.453796,612.151306 625.804565,609.777405
	C627.088135,608.481262 628.619873,607.238037 629.381165,605.654358
	C631.455078,601.340454 635.189514,598.871338 638.919250,596.377991
	C644.033203,592.959229 649.211182,589.634521 654.409729,586.345398
	C655.857971,585.429138 657.226440,583.779053 659.247742,585.016846
	C660.226379,586.587158 659.147217,587.583618 658.432312,588.666992
	C655.588318,592.977234 652.779053,597.310913 649.891357,601.591675
	C645.651062,607.877747 645.553467,607.990906 652.209778,611.778442
	C660.694641,616.606323 666.982605,622.895203 668.660583,633.045349
	C670.020935,641.273926 667.075500,647.564026 658.651489,652.993042
	C653.277222,656.456604 643.199097,656.442505 638.480835,651.549866
	C633.865417,646.763672 630.125916,645.307922 625.081482,650.189636
	C624.951294,650.315613 624.468689,650.077393 624.152283,650.000549
	C619.057007,641.579590 629.986267,622.383606 636.073792,618.972168
	C637.513672,618.165222 638.971924,618.221252 640.182068,619.494446
	C641.252502,620.620544 641.206116,621.863953 640.460632,623.160217
	C638.698608,626.224060 637.315063,629.441162 637.186523,633.023315
	C636.982849,638.704163 640.021301,642.546692 644.799805,644.920898
	C648.396912,646.708069 652.468079,646.843445 655.678711,644.200195
	C659.629395,640.947632 660.684448,636.564880 658.953247,631.559204
	C655.649963,622.008118 647.429199,617.819824 639.365662,613.498779
	C637.931519,612.730164 636.413452,613.808960 635.253662,614.752380
	C632.415710,617.060974 629.683228,619.498474 626.884949,621.856384
	C601.806274,642.988403 576.710144,664.099670 551.670898,685.278259
	C550.145569,686.568420 547.561096,687.729797 548.704346,690.420410
	C549.710815,692.788940 552.136780,692.735840 554.343872,692.689636
	C575.181274,692.252991 595.980408,693.851929 616.807556,693.875977
	C668.640198,693.935791 720.472839,693.945618 772.305481,693.943420
	C774.426270,693.943359 776.629089,694.335693 779.581604,692.831909
	C771.709717,677.451965 763.854126,662.103943 756.008240,646.774780
	C758.903870,645.139160 760.683228,645.926086 762.560730,646.754639
	C800.909729,663.678345 839.270386,680.575684 877.640625,697.451416
	C879.679688,698.348145 881.708862,699.128784 881.861511,701.788635
	C882.019470,704.541931 879.921631,705.459900 877.966736,706.386292
	C871.802246,709.307617 865.626465,712.206970 859.420593,715.039246
	C830.972961,728.022217 802.541626,741.041504 774.034668,753.893066
	C768.379639,756.442383 762.930481,759.664246 756.939880,761.051147
	C755.066711,758.506531 756.420044,756.820068 757.273804,755.052734
	C764.007935,741.114075 770.733337,727.171082 777.454224,713.225952
	C778.144409,711.793945 779.422913,710.469482 778.325317,708.446716
	C777.255554,708.393738 776.108643,708.290955 774.961304,708.286743
	C737.802246,708.151306 700.647522,708.180603 663.487122,707.388367
	C629.502441,706.663940 595.492371,707.135193 561.493530,707.067749
	C555.991455,707.056824 550.508667,707.132568 545.073730,708.212219
	C543.354797,708.553650 541.644348,708.999878 540.782898,710.461304
	C537.167175,716.595093 533.255249,722.639771 533.201294,730.169250
	C533.048401,751.495605 532.723450,772.820007 532.430542,794.144226
	C531.915466,831.637451 532.171448,869.141235 532.118225,906.640625
	C532.098999,920.140442 532.292236,933.643555 532.028259,947.138184
	C531.935730,951.866333 533.646179,953.315125 538.140381,953.007751
	C542.128540,952.735107 546.091370,952.286987 550.066833,951.958435
	C575.171448,949.883911 599.873474,945.472961 624.253174,939.257446
	C666.663635,928.445190 706.683899,911.847412 744.248596,889.344849
	C790.159729,861.842407 830.214417,827.557007 863.874573,785.918457
	C896.113831,746.037476 920.739258,701.889954 937.744629,653.474487
	C944.146545,635.247742 949.435974,616.685120 953.341553,597.827576
	C956.773926,581.255127 958.896973,564.439209 960.282532,547.467896
	C962.637146,518.627258 962.324158,489.903992 959.367065,461.223297
	C957.133911,439.564423 952.715393,418.275238 947.089111,397.171509
	C938.072571,363.351044 925.259216,331.125397 908.450806,300.510925
	C875.844971,241.123291 831.819153,191.777451 776.840454,152.207336
	C733.269531,120.847816 685.472290,98.223053 633.923157,83.472977
	C602.441528,74.464958 570.219421,69.122597 537.601318,67.542892
	C507.843903,66.101730 477.963196,66.133316 448.334503,70.597588
	C416.996338,75.319427 386.260498,82.492203 356.378693,93.202629
	C297.545166,114.290092 245.107635,145.979980 199.413223,188.558899
	C160.778473,224.559494 129.531281,266.224060 105.721672,313.452789
	C78.906311,366.643677 63.090435,422.940552 59.543510,482.317841
	C57.083080,523.506531 59.863007,564.535400 69.130005,604.968689
	C76.793037,638.403625 87.701775,670.704468 102.937866,701.408691
	C146.213577,788.618958 210.890991,855.215332 296.921417,900.830261
	C362.755402,935.736633 433.147522,952.894836 507.596039,953.635315
	C514.663025,953.705566 514.624268,953.628784 514.712036,946.436096
	C515.039368,919.612061 514.974548,892.789001 515.486389,865.960144
	C516.382690,818.979126 516.373901,771.976257 514.696655,724.996826
	C514.628174,723.080139 515.035522,720.873657 512.473083,719.976685
	C510.286377,720.594543 508.798798,722.207275 507.174866,723.613770
	C500.879639,729.066406 494.878479,734.909973 488.235107,739.898621
	C474.660736,750.091736 461.756714,761.058960 449.224701,772.468811
	C440.628174,780.295471 441.691620,790.154480 451.442047,796.024292
	C457.903503,799.914001 468.133148,797.980225 472.206573,792.045593
	C474.275970,789.030701 474.565430,785.843811 472.535339,782.693176
	C470.812439,780.019409 468.536957,778.781433 465.311249,780.257202
	C463.725189,780.982788 462.335968,780.444580 461.458588,778.952393
	C460.491394,777.307556 460.776794,775.675049 462.081329,774.374512
	C465.483459,770.982666 469.615936,771.023254 473.686615,772.574036
	C486.671600,777.520813 486.406494,793.917847 476.436859,802.570618
	C466.906464,810.842102 453.950897,810.424438 443.693634,803.040771
	C438.496765,799.299805 435.698792,793.977783 432.088806,786.913818
	C422.437897,802.527588 408.648285,811.393250 393.495117,818.582886
	C395.367035,811.229431 399.921539,805.655396 403.697662,799.697937
	C407.725220,793.343750 407.767426,792.519897 400.839417,789.655151
	C392.363190,786.150269 386.489349,780.027405 383.230072,771.610840
	C380.816559,765.378357 380.294342,758.927307 384.156372,752.891968
	C391.949768,740.713013 405.710907,738.367737 416.582153,747.943115
	C420.747009,751.611511 423.558502,752.392456 426.966553,747.701660
	C427.639038,746.776184 428.588623,745.869080 429.932678,746.381226
	C431.463348,746.964417 431.475220,748.372437 431.526031,749.729675
	C431.969330,761.561707 427.211060,771.376526 419.690857,780.091248
	C418.113342,781.919250 416.363525,783.526306 413.747742,781.489624
	C411.283112,779.570557 412.038269,777.535522 413.236450,775.314087
	C415.258606,771.565125 416.288055,767.583191 415.696320,763.278137
	C414.912018,757.571960 410.771332,754.544861 406.111694,752.708191
	C402.114410,751.132568 397.711090,751.757507 394.693024,755.429871
	C391.526245,759.283264 390.809174,763.519653 392.739410,768.437317
	C395.697784,775.974487 401.824158,780.169373 408.196350,784.153748
	C414.273956,787.954041 416.208801,787.869080 421.556000,783.157898
	C436.412201,770.068787 451.002594,756.675110 465.973724,743.720337
	C474.133331,736.659729 481.457550,728.650391 490.556671,722.621948
	C495.688416,719.221924 500.424011,715.143921 504.933136,710.424316
	C501.667572,708.887634 498.965942,708.275879 496.076324,708.310730
	C447.077606,708.902283 398.099365,707.086670 349.105194,706.968445
	C343.582611,706.955139 339.662109,708.748596 336.040497,712.730835
	C326.180969,723.572021 315.257355,733.552002 306.295410,745.071411
	C298.269775,755.387329 288.862457,759.062805 276.531128,757.182861
	C274.373016,756.853882 271.821228,758.119568 269.651062,754.993958
	C283.953247,740.202026 298.327209,725.335815 312.701172,710.469604
	C307.221344,710.101990 304.075531,713.116516 301.004913,716.061584
	C289.584839,727.015076 277.910675,737.737732 267.048004,749.224304
	C261.423859,755.171387 255.669189,758.530884 247.469025,757.182861
	C243.818726,756.582764 239.879486,758.179321 235.413086,755.411255
	C250.185394,740.160400 264.648834,725.228516 279.500610,709.895630
	C276.029175,708.654419 273.780945,709.803040 271.810547,711.214172
	C269.249695,713.048279 266.746857,715.042297 264.547363,717.288879
	C253.009476,729.073547 241.584778,740.968933 230.096008,752.801819
	C228.134949,754.821716 226.267197,757.161621 223.097061,757.174316
	C215.265213,757.205627 207.432922,757.149963 199.600983,757.101807
	C198.562439,757.095459 197.636932,756.747314 196.938095,754.908264
	C212.051514,740.269348 227.408752,725.394287 243.681747,709.632202
	C237.213120,708.875977 233.572632,710.952209 230.394318,714.044800
	C216.899261,727.175903 203.445343,740.349365 189.966980,753.497742
	C188.314163,755.109985 186.846497,757.103516 184.216125,757.114197
	C177.050186,757.143311 169.882950,757.194336 162.718506,757.085449
	C159.534851,757.037170 158.885239,755.419922 160.812653,752.916565
	C161.620651,751.867188 162.634033,750.973083 163.575317,750.029663
	C178.638840,734.932800 193.641205,719.773865 208.823868,704.797668
	C212.060364,701.605164 212.102982,699.362793 208.864258,696.144897
	C196.098648,683.461548 183.531525,670.578247 170.901993,657.758118
	C167.861343,654.671570 164.821777,651.581848 161.862534,648.418030
	C160.135651,646.571777 159.887009,644.304565 162.861816,644.094666
	C174.371307,643.282532 185.750061,642.653748 194.971771,652.138550
	C206.235580,663.723755 218.073654,674.749268 229.590027,686.091309
	C232.137344,688.599976 234.971909,690.501343 238.273071,691.814697
	C240.106049,692.543884 241.748062,692.831055 243.093796,691.055115
	C242.950592,689.456970 241.711792,688.733948 240.814804,687.806213
	C228.065338,674.619141 214.356216,662.446838 200.855057,650.054504
	C199.541458,648.848755 197.448944,647.867371 198.096390,645.724609
	C198.857239,643.206543 201.323181,643.834167 203.227371,643.812744
	C208.726440,643.750793 214.241180,644.058044 219.722366,643.743408
	C224.320084,643.479370 227.755127,645.219116 230.787369,648.378357
	C235.978256,653.786560 241.155563,659.209961 246.445740,664.520264
	C254.088608,672.192139 261.758545,679.839966 269.565002,687.344055
	C272.020782,689.704712 274.832489,691.845825 278.792542,691.702087
	C278.647400,688.906128 276.665070,687.706665 275.229919,686.225769
	C263.401245,674.019958 251.523193,661.862061 239.662277,649.687500
	C238.510437,648.505249 236.939789,647.385254 237.638916,645.468262
	C238.372162,643.457703 240.336945,643.794006 241.949142,643.835876
	C262.713745,644.376099 255.593491,640.580627 271.054810,655.384277
	C271.415833,655.729919 271.755341,656.097900 272.111847,656.448425
	C282.449707,666.613953 292.717346,676.852661 303.177551,686.890686
	C305.760223,689.369141 308.550629,692.180054 313.646881,691.337280
	C299.383514,676.394897 285.632080,661.988770 271.653442,646.895691
M686.991638,360.627991
	C692.200562,371.691742 695.587402,383.414062 696.951355,395.439209
	C699.454895,417.511658 695.229553,438.427399 684.021484,457.857758
	C669.340759,483.308258 647.050842,499.831329 621.017456,511.912750
	C594.897095,524.034485 566.882080,528.926208 538.570618,531.829224
	C522.227600,533.505127 505.848541,534.889709 489.582184,537.186951
	C484.462006,537.910095 478.928650,537.852966 473.889862,541.234009
	C478.006927,542.456604 481.392914,540.974976 484.845276,540.839050
	C507.270233,539.956055 529.580750,537.568237 551.943726,535.864563
	C573.376587,534.231689 594.334106,530.826904 614.777161,523.898987
	C642.153076,514.621704 666.270569,500.644775 684.876770,478.088348
	C698.426147,461.662354 707.222473,443.098358 708.710266,421.704407
	C710.440735,396.823425 704.269531,373.663269 691.999084,352.016632
	C682.921753,336.002930 672.092957,320.897705 666.242737,301.625671
	C665.905579,309.589142 667.927856,315.645508 670.239502,321.423889
	C675.422241,334.379272 681.162781,347.111481 686.991638,360.627991
M551.420532,500.018402
	C550.641663,500.311981 549.885620,500.752106 549.080566,500.877563
	C532.172974,503.511475 515.324219,506.707275 498.080231,506.120758
	C495.007050,506.016235 491.862366,505.829224 488.977356,507.462372
	C493.539856,507.506195 497.837738,509.486572 502.211243,509.472748
	C518.631714,509.420837 535.027283,510.767334 551.487122,508.202545
	C564.153992,506.228790 576.614075,503.806549 588.687866,499.650513
	C614.257080,490.849121 636.465698,477.070007 652.699951,454.901398
	C665.114929,437.948181 671.612915,419.046021 671.890869,397.865509
	C672.048950,385.821320 670.968140,373.981781 668.406128,362.301727
	C666.810242,355.025848 664.274597,347.956085 662.160706,340.793823
	C663.568542,355.161346 663.995605,369.364624 663.291687,383.672913
	C662.246826,404.909973 656.481567,424.608398 644.630066,442.252411
	C622.489014,475.215057 589.827576,491.525269 551.420532,500.018402
M629.384949,283.939575
	C631.609192,277.534851 635.860229,272.226501 639.016418,266.312042
	C630.737427,275.116608 624.306946,285.085571 619.267700,296.041168
	C610.631714,314.816254 605.637573,334.890015 598.253296,354.111298
	C585.195007,388.102325 563.044250,414.096710 530.974243,431.522614
	C529.687500,432.221802 528.485107,433.076141 526.594849,434.266663
	C528.027954,434.531738 528.362244,434.681366 528.663269,434.631195
	C529.311951,434.523071 529.955322,434.347717 530.580261,434.138184
	C548.774231,428.037811 564.418030,417.802765 577.906311,404.316895
	C599.606628,382.620514 610.729980,355.623199 616.756165,326.059235
	C619.639465,311.913879 622.894714,297.827423 629.384949,283.939575
M513.870422,462.490845
	C526.167358,458.472137 538.274597,454.037872 549.432068,446.454865
	C546.985046,446.060974 545.529297,447.361298 543.932983,448.068726
	C533.414856,452.729797 522.530334,456.372772 511.337280,458.879913
	C492.731628,463.047394 473.660187,462.807495 454.761780,463.829407
	C441.943573,464.522552 429.307007,465.832092 416.894653,469.005188
	C406.806732,471.584106 397.176392,475.331879 387.975708,481.192871
	C388.837982,481.393188 389.202911,481.610657 389.439667,481.514069
	C410.212677,473.037506 432.299042,470.753540 454.266266,469.265656
	C474.006958,467.928589 493.681641,466.871796 513.870422,462.490845
M667.050476,242.448502
	C666.742371,243.210632 666.337402,243.948853 666.142212,244.738876
	C665.091064,248.993668 666.967529,252.055664 670.785217,253.349915
	C674.439392,254.588730 678.234863,253.967438 680.096191,249.966476
	C681.863098,246.168671 680.733337,242.854477 677.177612,240.544266
	C673.598938,238.219147 670.330566,238.690414 667.050476,242.448502
M413.754883,426.348389
	C408.588013,426.611694 407.840668,426.879333 404.766785,429.567535
	C408.982513,429.935883 425.955902,427.513672 427.944580,426.244904
	C423.485046,424.583374 419.067261,426.358765 413.754883,426.348389
M519.058777,607.382812
	C518.950195,603.406921 522.098145,600.858398 523.929504,597.412048
	C516.605774,598.569519 513.753601,605.224731 517.860413,610.686646
	C518.843018,610.062866 518.732544,609.001465 519.058777,607.382812
M449.342743,411.974792
	C448.477509,412.032166 447.622253,410.958313 446.403320,412.232452
	C451.084167,413.864746 455.541992,415.419281 459.999847,416.973785
	C457.171997,414.127045 453.879303,412.455048 449.342743,411.974792
z"/>
<path fill="#C6DFEF" opacity="1.000000" stroke="none"
	d="
M723.054199,222.558105
	C721.754944,225.885895 720.576721,228.875000 718.111877,231.004395
	C710.177002,237.859283 705.868896,238.222366 698.848145,234.230484
	C692.949829,230.876816 687.067993,227.516815 680.316467,225.760544
	C666.778076,222.238831 654.355225,224.948486 642.451172,231.450363
	C635.733643,235.119370 629.944275,240.275223 623.048401,243.690094
	C603.873047,253.185806 584.968445,246.571609 576.283264,227.039154
	C568.309875,209.107346 568.990356,191.227097 577.338318,173.553452
	C578.039978,172.067947 578.446045,170.019592 580.581299,170.415848
	C582.443481,170.761444 582.006165,172.748123 582.328979,174.158783
	C584.711060,184.565979 589.803284,192.951538 599.951660,197.494110
	C600.999451,197.963104 602.090271,198.456604 603.208618,198.627182
	C609.407104,199.572540 610.625671,198.328873 608.433655,192.453217
	C606.494934,187.256592 606.734985,182.010330 606.826294,176.696335
	C606.868408,174.244522 607.829163,172.223099 609.938232,169.879791
	C613.655029,175.175980 616.942383,180.481888 622.479248,183.837112
	C627.838745,187.084930 633.463318,188.983398 640.626038,189.891815
	C638.896362,186.048767 637.283447,183.040680 636.203674,179.852066
	C635.546387,177.911209 634.556030,175.423767 636.239868,173.674377
	C638.010010,171.835342 640.066467,173.680801 641.737976,174.414093
	C651.017883,178.485306 660.195007,182.790314 669.456604,186.904221
	C670.871765,187.532776 672.211670,188.891785 674.318298,188.066788
	C674.544434,184.594620 672.033386,182.028366 671.101501,178.959274
	C670.583740,177.254181 669.014404,175.523209 670.530212,173.884857
	C672.109375,172.178085 674.040894,173.752411 675.631165,174.287750
	C686.879822,178.074509 695.592163,185.365143 702.927979,194.479492
	C703.742920,195.492065 704.221741,196.853699 705.935974,197.152710
	C708.994873,193.566742 704.578796,189.569046 706.234497,185.923874
	C717.300415,187.411774 725.757568,205.723221 723.054199,222.558105
z"/>
<path fill="#C6DFEF" opacity="1.000000" stroke="none"
	d="
M732.986572,298.530457
	C733.246826,310.532227 729.412537,316.974487 721.226074,319.564728
	C708.969177,323.442871 698.559570,314.832825 695.731750,304.302002
	C692.241211,291.302948 697.046509,279.771942 701.886047,268.273346
	C703.126282,265.326721 703.804688,260.956757 707.468079,260.574707
	C711.285889,260.176544 711.509155,264.813568 713.138794,267.285461
	C716.356384,272.165894 720.057678,276.649994 723.699951,281.186523
	C727.793396,286.284943 731.399353,291.620453 732.986572,298.530457
z"/>
<path fill="#C6DFEF" opacity="1.000000" stroke="none"
	d="
M673.052856,251.151276
	C669.498840,249.757095 667.757507,247.556931 669.311829,244.136444
	C670.221375,242.134674 672.075439,240.665771 674.478577,241.117859
	C677.089661,241.609070 678.344360,243.656784 678.357605,246.159561
	C678.374084,249.274399 676.540527,250.934464 673.052856,251.151276
z"/>
</svg>
