<svg version="1.1" id="Layer_1" xmlns="http://www.w3.org/2000/svg" xmlns:xlink="http://www.w3.org/1999/xlink" x="0px" y="0px"
	 width="100%" viewBox="0 0 704 704" enable-background="new 0 0 704 704" xml:space="preserve">
<path fill="#F6F7EB" opacity="1.000000" stroke="none"
	d="
M387.290833,677.382263
	C369.723328,679.407410 352.609192,679.047485 335.478668,677.710205
	C317.862885,676.335083 300.441162,673.801880 283.275024,669.555542
	C237.530869,658.239929 195.726349,638.574036 158.488815,609.690002
	C97.832733,562.640747 60.164536,500.961517 44.292267,426.129974
	C37.388573,393.581726 35.978096,360.532745 39.476494,327.293518
	C44.121506,283.160004 56.548428,241.579575 78.873764,203.115967
	C82.045692,197.651169 85.762314,192.503387 89.200958,187.192139
	C91.071465,184.303009 93.086113,184.018738 95.682938,186.416336
	C100.210167,190.596222 104.827759,194.681625 109.495293,198.704758
	C111.829933,200.717087 111.952591,202.536453 110.215416,205.143524
	C90.062637,235.387726 77.533806,268.748383 70.790596,304.275574
	C65.705971,331.064362 65.066086,358.140808 67.088242,385.336426
	C68.863472,409.211273 74.025284,432.331573 81.365189,455.031769
	C82.182503,457.559448 83.243546,460.011719 84.273361,462.464630
	C84.509636,463.027405 85.084312,463.448120 85.649269,464.103607
	C89.860184,461.364166 92.330322,457.470551 94.082825,453.133881
	C96.278313,447.701111 90.657089,449.295807 88.199745,447.015869
	C94.502548,440.045135 99.134552,431.998840 102.041870,422.645416
	C106.241135,430.483459 108.370384,439.186737 115.252625,444.352783
	C114.909584,446.510437 113.657440,446.428986 112.804466,446.682770
	C109.165199,447.765350 108.639656,449.874695 110.153793,453.152527
	C113.466637,460.324341 117.755333,466.809509 123.098694,472.621185
	C124.423798,474.062469 126.243858,475.126251 126.928749,477.474182
	C125.157303,479.237732 122.671600,479.735931 120.427269,480.596161
	C117.243118,481.816620 117.002678,483.476562 118.728424,486.308319
	C123.261253,493.746033 124.537163,494.010712 130.816071,487.841827
	C132.713455,485.977722 134.538193,484.009369 136.173233,481.914703
	C139.843033,477.213257 139.518829,476.235748 134.038773,474.331970
	C133.277908,474.067627 132.533096,473.757080 131.330185,473.294708
	C135.226593,467.561523 141.529449,463.930450 143.418396,457.438690
	C142.416824,455.091949 139.899002,455.830414 138.202927,453.642731
	C143.671951,447.985474 147.474091,441.000092 150.570938,431.958954
	C154.548264,440.917145 157.427170,448.720978 163.267975,454.751160
	C157.224838,459.497772 157.116440,460.636505 161.071426,466.999725
	C164.549820,472.596222 168.863174,477.368500 174.184875,481.251678
	C175.356567,482.106598 176.867462,482.717224 177.127182,484.695435
	C173.880569,487.470093 168.890060,486.929138 165.502884,490.397369
	C168.373627,496.121613 173.710403,499.308990 178.582321,502.946625
	C179.711624,503.789795 180.816101,503.290527 181.755798,502.470642
	C185.142563,499.515503 188.423096,496.472351 189.925262,492.138306
	C188.845337,490.280670 186.264175,491.003662 185.136917,488.358612
	C190.273285,482.940521 194.391083,476.427948 196.614838,467.344482
	C201.163788,474.894867 202.587952,482.703949 208.632782,488.147766
	C203.207123,492.434875 206.409592,495.436554 209.517197,498.353394
	C212.043503,500.724701 214.701355,502.955933 217.478500,505.405945
	C214.918991,508.212067 210.669250,507.902130 208.538620,511.187317
	C211.824402,518.746521 219.347061,522.151611 225.083435,527.557922
	C223.093079,530.445251 220.070862,531.261658 217.464035,532.323853
	C212.740997,534.248474 211.716888,536.838928 215.131424,541.409729
	C224.883591,537.949768 234.199753,532.167236 245.426865,532.435730
	C234.333893,542.792114 223.182755,552.898376 217.808350,567.615601
	C225.410217,560.072510 233.123459,552.809998 244.318069,550.492554
	C238.356171,559.599670 231.636810,568.222168 230.452606,577.805847
	C236.105515,572.760986 242.804901,567.309204 248.832352,561.195068
	C252.168121,557.811279 251.001709,552.554077 251.404449,548.208557
	C254.108597,519.030884 255.328827,489.754425 256.698303,460.488068
	C257.256470,448.560760 252.783096,437.986633 248.768448,427.236450
	C238.805313,400.557770 228.615555,373.961243 218.944214,347.177399
	C215.490326,337.612244 209.706528,330.934204 200.507706,326.718536
	C188.850876,321.376373 177.385971,315.615540 165.838318,310.035187
	C164.788773,309.527985 163.708954,309.074219 162.696747,308.501068
	C160.861221,307.461792 159.264130,306.169830 160.169128,303.740326
	C161.095383,301.253784 162.976227,300.596375 165.409805,301.495667
	C168.997177,302.821350 172.619339,304.069244 176.139297,305.557037
	C181.354095,307.761169 186.463455,310.214874 191.679459,312.415985
	C193.408981,313.145874 195.199188,314.579926 197.257935,313.135132
	C198.027039,311.127411 196.495331,309.971313 195.621246,308.660767
	C186.286377,294.664795 177.490402,280.306946 167.484848,266.759918
	C166.245285,265.081635 164.363113,263.284485 166.519272,261.065643
	C168.642914,258.880280 170.206924,261.046539 171.661224,262.124084
	C180.930511,268.992065 189.581802,276.271729 194.948929,287.019409
	C199.481659,296.096252 205.806778,304.166107 211.811584,312.376251
	C214.295883,315.772949 217.950775,317.759125 220.521103,321.169037
	C228.719131,332.044952 230.979919,345.165161 235.239395,357.518890
	C240.518295,372.829193 247.010391,387.596680 254.322906,402.020782
	C255.343658,404.034210 256.612427,405.921906 257.820526,407.959167
	C260.120850,406.263733 259.594086,404.307098 259.629608,402.579803
	C259.746155,396.914978 259.298096,391.198547 259.899475,385.591217
	C261.665283,369.126221 256.415955,354.536713 247.806595,341.128876
	C218.112762,294.885010 186.053680,250.524475 144.016388,214.360947
	C142.756485,213.277069 141.553757,212.102142 140.470001,210.844193
	C139.041763,209.186371 138.474625,207.319794 140.107788,205.445419
	C141.816696,203.484100 143.827942,204.047134 145.471313,205.349518
	C150.690933,209.485992 155.787003,213.778442 160.926483,218.015869
	C163.835068,220.413940 166.465698,223.191513 170.442856,225.330582
	C170.080200,222.121506 168.904404,219.958496 167.781677,217.804779
	C160.696548,204.213608 153.577606,190.640045 146.478485,177.056152
	C145.398148,174.988968 144.309036,172.923447 143.320099,170.812119
	C142.088760,168.183304 140.716614,165.247314 144.191589,163.419083
	C147.603912,161.623810 148.911850,164.641220 150.207291,166.917801
	C161.085831,186.035767 171.586548,205.365601 181.196548,225.149353
	C190.676758,244.665909 203.587692,261.768921 217.383011,278.305786
	C218.019699,279.069000 218.745438,279.778290 219.521667,280.397369
	C220.013275,280.789429 220.675522,280.967560 221.173828,281.200714
	C223.148483,280.169037 222.664597,278.581116 222.377502,277.172668
	C219.720840,264.139130 217.224396,251.080444 214.221100,238.108841
	C209.278839,216.762650 196.802536,199.360214 185.428757,181.401672
	C181.681198,175.484497 174.809540,172.389481 169.681595,167.631699
	C165.896774,164.120087 161.932632,160.802399 158.103943,157.336914
	C157.126785,156.452469 156.267044,155.399109 155.519302,154.309479
	C154.374512,152.641251 154.261536,150.809586 155.608582,149.225281
	C157.166229,147.393311 159.051743,148.112625 160.527145,149.262756
	C164.727737,152.537231 168.788223,155.991028 172.917801,159.357162
	C174.678543,160.792389 176.309677,162.526978 178.854507,162.512619
	C180.537735,160.107666 179.733276,157.803726 179.223495,155.612244
	C177.941513,150.101334 176.466782,144.635513 175.147812,139.132812
	C174.455917,136.246323 174.134750,132.950638 177.645844,132.007492
	C181.237000,131.042831 181.793777,134.457840 182.585434,136.961075
	C186.945862,150.748871 189.580963,165.112350 196.258163,178.125809
	C199.603317,184.645309 203.013855,191.131973 206.469986,197.593262
	C207.227417,199.009277 207.788147,200.715958 209.962738,201.308136
	C211.672638,199.254715 211.300323,196.788666 211.172760,194.362366
	C210.840271,188.037582 210.454681,181.696350 211.203796,175.392761
	C211.458267,173.251373 211.504074,170.254974 214.810257,170.311783
	C217.868271,170.364365 218.318130,172.791733 218.509857,175.286911
	C219.376251,186.562134 220.263565,197.835861 221.189331,209.106369
	C223.236465,234.028564 228.050491,258.464478 233.777634,282.772949
	C238.057922,300.940308 246.168350,317.145264 257.214752,332.018890
	C258.188202,333.329559 259.024628,334.859253 260.983032,335.150116
	C263.062347,334.124176 262.653320,332.106537 262.659790,330.374939
	C262.757355,304.214447 264.048370,278.069153 263.599487,251.901138
	C263.298981,234.385422 256.392639,218.865723 249.100204,203.475571
	C240.747681,185.848236 231.566986,168.632568 221.509781,151.936569
	C212.248367,136.561630 199.676468,123.829910 186.899170,111.359833
	C186.066254,110.546936 185.066864,109.899834 184.265335,109.060600
	C182.718933,107.441467 179.943542,106.260094 180.828018,103.488098
	C181.800156,100.441345 184.647888,98.988373 187.435944,97.809593
	C189.387375,96.984543 190.499924,98.431084 191.600403,99.725784
	C194.836258,103.532715 198.060394,107.350159 201.342972,111.116524
	C202.384796,112.311874 203.165115,113.996513 205.511261,113.781441
	C205.664780,109.643501 203.496033,106.149559 202.491013,102.383392
	C201.848038,99.973923 200.954437,97.632484 200.251846,95.237473
	C199.437683,92.462082 200.149109,90.036873 202.964554,89.128387
	C205.809601,88.210342 206.606171,90.819633 207.430359,92.757744
	C212.188080,103.945778 216.914032,115.147697 221.580048,126.374290
	C231.656754,150.619156 246.024536,172.589157 258.264832,195.686569
	C260.026978,199.011734 261.879608,202.288925 263.805786,205.798660
	C265.509430,204.108978 264.976501,202.535126 264.980774,201.143829
	C265.046021,179.978989 264.820648,158.809799 265.195648,137.651031
	C265.354584,128.685349 262.821167,121.057220 257.593872,113.947479
	C249.586487,103.056519 240.673111,92.921288 232.034012,82.554443
	C230.757996,81.023239 229.471100,79.470436 228.437256,77.776268
	C227.277817,75.876244 227.405655,73.892281 229.185028,72.355415
	C231.137939,70.668686 232.981796,71.537170 234.502792,73.032928
	C237.233963,75.718796 239.794601,78.577461 242.506012,81.284271
	C244.091171,82.866745 245.446930,84.859299 248.571701,85.446762
	C247.814896,80.119377 247.115463,75.253250 246.437881,70.384071
	C246.278000,69.235222 245.970978,68.046730 246.120056,66.928253
	C246.383911,64.948776 246.751694,62.698086 249.262543,62.414806
	C251.755890,62.133503 252.749542,64.022812 253.231766,66.087250
	C254.631729,72.080734 255.908340,78.103149 257.322418,84.093178
	C258.958038,91.021545 260.450897,98.010254 264.364166,104.815704
	C266.021881,102.564102 265.687073,100.425148 265.689453,98.425552
	C265.705200,85.259438 265.734589,72.092636 265.606201,58.927551
	C265.575226,55.746822 266.300934,53.387314 269.562653,52.310459
	C280.660919,48.646381 292.047424,46.173836 303.525879,44.090511
	C304.644592,43.887463 305.852722,43.939011 307.224854,45.459442
	C302.374268,48.415482 296.195648,47.929516 291.645020,51.978508
	C295.877136,55.415215 301.637695,53.301559 306.030426,56.616043
	C302.047150,59.689800 297.097412,58.548615 292.882690,61.068958
	C296.926422,65.166771 303.287201,62.645313 307.584656,66.352684
	C303.130554,70.295509 296.038055,67.026382 292.208893,72.374573
	C296.194458,76.063255 302.034332,73.992058 305.868744,77.861107
	C302.049622,81.273880 296.716431,79.754929 292.636841,82.546066
	C295.925415,86.367477 301.563934,84.078896 304.848450,87.742035
	C301.467682,91.082085 296.183441,89.126183 292.830170,92.534348
	C295.705231,95.230133 300.246399,93.613251 302.966644,96.978180
	C299.294098,99.716011 294.153198,98.468803 291.146484,102.044243
	C293.286316,106.770508 299.075439,104.837761 302.357544,108.128723
	C297.933502,111.597565 291.692169,109.553917 288.097076,113.899376
	C296.103516,120.213463 307.180389,117.473930 310.554169,108.325378
	C312.979584,101.748543 314.268707,94.877838 314.724701,87.864861
	C314.838470,86.115303 314.412750,84.187439 316.030975,82.755875
	C318.902100,83.987923 317.638245,87.968307 320.470093,89.016960
	C321.852448,88.677696 322.188751,87.462486 322.668762,86.443260
	C329.364807,72.224525 338.470459,59.418652 346.398682,45.923145
	C346.735901,45.349152 347.101929,44.789822 347.486816,44.246521
	C348.558990,42.732925 349.616058,41.050793 351.877014,41.834686
	C354.276917,42.666775 354.407928,44.671364 354.113708,46.776356
	C353.008545,54.683598 351.568512,62.559296 350.840302,70.500580
	C349.564301,84.415047 348.428864,98.352211 348.307465,112.342224
	C348.299072,113.310593 348.165497,114.381111 349.439423,115.226273
	C352.245636,114.823868 352.942902,112.141769 354.038269,110.099136
	C363.484406,92.483200 371.870636,74.303574 382.174530,57.144295
	C384.317108,53.576210 386.535248,50.038818 388.959137,46.659855
	C390.426514,44.614300 391.904602,41.569633 395.256683,43.560734
	C398.678955,45.593513 396.610046,48.181393 395.398438,50.469475
	C389.553802,61.506615 382.974976,72.160088 378.074310,83.689339
	C377.831818,84.259911 377.657684,84.859528 377.148712,86.307884
	C381.029724,84.293358 382.951813,81.392807 385.167145,78.908081
	C393.594513,69.455719 402.052948,60.036396 411.161194,51.226421
	C412.924896,49.520451 414.743195,47.050816 417.466034,49.415852
	C420.364197,51.933140 418.255432,54.278278 416.530060,56.298744
	C400.634216,74.913368 384.563080,93.380257 368.835205,112.135231
	C363.389130,118.629524 358.596680,125.697472 353.800476,132.705185
	C346.865570,142.837738 340.472717,159.505798 339.669647,168.853287
	C341.692322,168.315079 342.569763,166.706360 343.594696,165.331711
	C350.366364,156.249573 357.426514,147.362213 363.796387,138.005493
	C373.506348,123.742485 385.678101,112.206787 399.773224,102.354752
	C417.923279,89.668404 436.386505,77.337250 452.443207,61.911297
	C456.147858,58.352161 457.818787,60.943851 459.282990,64.320335
	C462.799347,62.560993 466.821808,59.070953 469.268951,64.173080
	C471.476379,68.775284 466.298645,70.218948 463.543030,72.022049
	C440.128937,87.342873 416.135132,101.768440 393.700653,118.589279
	C384.933014,125.163048 378.918823,133.906769 372.640625,142.455444
	C357.939636,162.473160 344.424866,183.289749 331.827789,204.705093
	C328.175415,210.914185 326.462433,217.458786 326.226562,224.625549
	C325.722809,239.934372 324.899292,255.232498 324.282745,270.538055
	C324.213593,272.254333 323.417633,274.544891 325.591187,275.444977
	C327.460419,276.219055 329.001831,274.622192 330.579071,273.723419
	C346.715973,264.528107 353.896149,249.336197 358.740509,232.371597
	C363.355316,216.210861 368.509705,200.204910 373.312469,184.096817
	C375.379089,177.165588 378.421478,170.818542 382.527985,164.822067
	C390.527466,153.140808 398.124756,141.184662 405.950073,129.383102
	C407.432953,127.146790 409.114655,124.610397 412.342316,126.858017
	C415.378052,128.971985 414.052673,131.620300 412.635864,133.915894
	C406.949310,143.129425 401.116302,152.252457 395.402313,161.449219
	C394.208527,163.370605 392.531158,165.135391 392.593872,168.170670
	C396.714203,168.843079 400.314331,166.874023 404.024292,166.004715
	C408.070679,165.056595 412.003876,163.630905 415.998169,162.453262
	C418.393311,161.747070 420.839935,161.496933 421.828308,164.445312
	C422.822174,167.410110 420.609344,168.788559 418.354431,169.582535
	C410.818817,172.235947 403.330811,175.136032 395.615875,177.137314
	C387.785950,179.168427 382.829712,183.242615 380.587402,191.255096
	C374.936432,211.447510 368.863495,231.521835 362.959503,251.643448
	C362.729614,252.426956 362.313507,253.210403 363.046021,254.087646
	C364.761566,254.803375 366.131714,253.556366 367.587128,252.949234
	C369.737122,252.052322 371.734741,250.761734 373.919586,249.981277
	C392.677124,243.280731 404.042755,229.451340 413.080109,212.229004
	C429.832764,180.303741 444.957611,147.739960 456.905975,113.715263
	C457.842346,111.048813 459.077118,108.483948 460.233795,105.898979
	C461.313538,103.485992 462.244904,100.290054 465.767487,101.647583
	C469.384399,103.041473 468.326385,106.187904 467.387543,108.932526
	C464.261536,118.071335 461.093781,127.195869 457.947083,136.327621
	C457.737610,136.935379 457.570251,137.557663 458.050568,138.730179
	C462.709320,133.762939 467.529449,128.935684 471.988953,123.795570
	C478.647583,116.120674 485.052063,108.225258 491.565094,100.424034
	C492.205811,99.656624 492.797119,98.839111 493.502319,98.136086
	C495.439484,96.204926 497.271301,93.036285 500.460632,95.805763
	C503.535706,98.476028 500.911896,100.993004 499.346649,103.203369
	C496.460785,107.278679 493.348206,111.192795 490.386230,115.215393
	C489.753723,116.074440 488.536407,116.777290 489.338287,118.647148
	C495.884308,116.539009 502.464355,114.413361 509.048981,112.301956
	C512.539490,111.182701 516.037537,110.086678 519.533081,108.983109
	C521.797424,108.268242 523.996582,108.217003 525.024841,110.779823
	C526.017578,113.254219 524.667603,115.143623 522.472473,116.013245
	C516.284119,118.464813 510.028564,120.754395 503.752991,122.976456
	C496.847748,125.421455 489.890869,127.720665 482.956177,130.082520
	C478.788300,131.502045 475.089539,133.658966 472.042664,136.889725
	C463.809937,145.619186 455.826019,154.563004 448.848877,164.345078
	C447.122925,166.764923 445.410126,169.263947 444.407440,173.415726
	C449.431610,169.683426 453.782135,166.595840 457.975769,163.308182
	C468.994781,154.669693 480.316010,146.446579 491.798828,138.442291
	C493.160217,137.493332 494.579987,136.581314 496.084076,135.897003
	C497.599548,135.207520 499.010345,135.700775 500.122040,136.965134
	C501.330322,138.339417 501.127472,139.807404 500.102631,141.059296
	C499.062927,142.329407 497.847412,143.498474 496.550690,144.508774
	C480.389526,157.100174 464.213531,169.672607 448.013031,182.213348
	C432.186005,194.464920 423.007416,211.259903 415.298920,229.422836
	C417.648804,230.536331 419.421356,229.505707 421.166260,228.770035
	C425.003357,227.152222 428.786865,225.407410 432.623291,223.787964
	C434.993317,222.787521 437.295258,222.727158 438.633728,225.389328
	C439.926727,227.961121 438.269104,229.577637 436.276245,230.650513
	C429.531158,234.281845 422.794983,237.946716 415.904877,241.288422
	C399.118896,249.429718 382.145966,257.190765 365.441864,265.494324
	C349.912384,273.214020 335.881805,282.928009 326.194092,297.850677
	C323.026276,302.730255 321.187958,307.876434 321.274994,313.794983
	C321.387695,321.457306 321.124725,329.124878 321.048584,336.790466
	C321.030670,338.594543 320.782379,340.454926 321.836578,342.113312
	C324.326721,343.152191 326.112183,341.501343 327.863220,340.479889
	C342.191956,332.121552 355.024567,321.800659 366.771301,310.136963
	C371.173676,305.765717 372.663391,299.777954 374.678833,294.143036
	C376.697449,288.499390 378.580750,282.807373 380.592743,277.161285
	C381.405212,274.881317 382.559296,272.570251 385.530029,273.368134
	C388.429901,274.146973 388.494537,276.716827 388.084381,279.114258
	C387.199341,284.287781 386.162842,289.435364 386.241699,295.268250
	C392.054932,290.960052 397.989838,286.805450 403.657990,282.314148
	C419.075287,270.097870 434.509796,257.853973 446.357147,241.884109
	C456.891998,227.683456 465.724487,212.350632 475.352081,197.547806
	C481.841278,187.570404 489.372559,178.662888 497.897156,170.318451
	C512.417725,156.104752 526.216675,141.153976 540.326111,126.519913
	C541.250671,125.560982 542.178589,124.589943 543.207642,123.750389
	C544.977112,122.306740 546.796082,120.162849 549.182739,122.633675
	C551.310974,124.837029 550.046204,126.994980 548.489258,128.861710
	C538.769958,140.514496 528.151428,151.339523 517.627258,162.250183
	C515.329590,164.632202 512.886108,166.889343 510.795380,170.508118
	C516.435120,168.930054 520.650208,166.079468 524.927307,163.477066
	C535.032898,157.328415 545.023926,150.991501 555.061340,144.730865
	C555.909729,144.201721 556.727051,143.611588 557.613831,143.157272
	C559.884033,141.994202 562.414001,140.654083 564.321106,143.362320
	C566.320374,146.201431 564.043640,148.027313 561.977783,149.489227
	C556.402832,153.434341 550.837341,157.406555 545.094543,161.098022
	C530.929993,170.203110 516.616516,179.044220 500.566925,184.611954
	C494.994049,186.545227 490.974121,190.421738 487.820923,195.355301
	C483.030396,202.850632 477.387604,209.829086 473.329895,218.410309
	C477.239624,219.085617 479.921112,217.531113 482.590637,216.457443
	C500.582092,209.221329 517.403809,199.730438 533.886047,189.596725
	C541.123474,185.146942 548.371826,180.713776 555.666992,176.359726
	C558.038940,174.944000 560.900757,172.690430 562.998596,176.261948
	C564.805786,179.338776 561.972473,181.100937 559.810669,182.639221
	C535.029114,200.272476 509.219940,216.177948 480.583527,226.768326
	C469.942841,230.703491 461.486816,236.024094 454.706238,245.612213
	C439.429779,267.214020 418.559814,283.205566 397.555481,298.894592
	C391.304749,303.563568 385.313782,308.580353 379.203766,313.437744
	C379.425476,313.808380 379.647186,314.179016 379.868896,314.549652
	C385.911438,311.156555 392.187958,308.117645 397.954926,304.307465
	C419.899902,289.808777 440.333069,273.020142 463.776794,260.793518
	C478.554016,253.086716 493.109131,245.015030 507.248291,236.169617
	C527.313782,223.616653 545.552307,208.352692 566.177917,196.645996
	C573.136658,192.696274 580.165588,188.875153 587.713013,186.148438
	C589.894653,185.360260 592.497864,184.454727 593.853821,187.305984
	C595.307617,190.362976 593.050232,191.887817 590.704041,193.082321
	C569.848877,203.700272 550.361816,216.460251 531.818115,230.692978
	C530.554626,231.662766 528.856628,232.272141 528.230957,234.823730
	C533.845093,234.353928 539.213440,233.998322 544.560669,233.440735
	C565.779541,231.228180 587.063171,230.155167 608.381958,229.626007
	C611.363892,229.552002 614.550354,229.434616 614.670410,233.397705
	C614.779785,237.008942 611.646240,237.338425 608.941528,237.524582
	C595.326904,238.461700 581.703247,239.271317 568.090942,240.240234
	C551.337463,241.432755 534.527161,242.224243 517.990784,245.391006
	C510.302307,246.863373 503.175323,249.901337 496.461182,255.291077
	C500.980225,257.607574 505.329193,257.785400 509.419037,258.834381
	C513.772339,259.950989 518.182312,260.857819 522.504883,262.078186
	C524.544556,262.653992 527.155396,263.505859 526.620605,266.244019
	C526.065918,269.083862 523.608215,270.150238 520.812256,269.683472
	C513.921265,268.533081 507.054535,267.238678 500.173859,266.025970
	C495.261841,265.160309 490.349518,264.292511 485.424103,263.508850
	C483.445557,263.194061 481.408813,263.079681 479.520386,263.963928
	C458.627625,273.746887 439.092590,285.678711 420.166687,301.308655
	C422.878601,300.929169 424.240631,300.833527 425.558746,300.540344
	C464.357452,291.909790 503.632477,286.924683 543.324951,285.143799
	C545.817932,285.031952 548.332275,285.013977 550.816772,285.207794
	C553.082703,285.384583 555.348755,286.237579 555.440247,288.881226
	C555.540588,291.780426 553.190491,292.854523 550.761414,293.090698
	C545.628967,293.589722 540.472595,293.850891 535.323853,294.174164
	C504.730377,296.095093 474.398163,300.002563 444.380554,306.239166
	C412.557434,312.850922 381.894745,322.684692 353.992249,339.800720
	C344.325958,345.730225 334.980957,352.196808 328.276184,361.677002
	C323.872101,367.904114 321.340210,374.507996 321.185303,382.463562
	C320.604767,412.280487 319.896576,442.097626 320.446716,471.914642
	C320.944244,498.879364 321.512909,525.852661 323.397614,552.770691
	C323.534698,554.728577 324.089264,556.657166 324.638672,559.617554
	C337.709961,546.346619 351.474152,535.358459 368.950775,529.936340
	C353.181213,540.576599 340.362396,553.619995 332.229156,572.747681
	C343.451141,559.914551 355.593628,550.770752 370.501678,545.154236
	C355.906036,556.327820 345.140625,570.051758 340.633026,588.180786
	C353.754242,567.725586 368.677551,549.216431 391.911560,539.475647
	C376.944244,551.410217 365.635254,565.889038 359.660400,584.332458
	C373.969269,561.558350 394.007965,546.674133 420.091705,539.830627
	C395.415131,554.538940 379.465393,575.138611 375.437714,604.025513
	C388.665375,579.467834 406.912323,560.045349 432.205017,547.696899
	C436.801514,545.452759 436.819122,545.488831 440.624695,545.633179
	C417.973938,560.020386 402.895416,579.033203 399.549042,605.944580
	C408.759308,580.317566 424.752258,560.434326 448.670746,547.188843
	C440.331604,557.192688 431.133026,566.525330 426.452576,580.569824
	C437.085968,567.478699 448.858185,557.819702 464.178009,552.778381
	C452.273956,562.108398 442.427246,572.834106 437.355011,588.583191
	C450.805115,575.284302 464.077545,563.646362 481.959778,558.734314
	C466.405548,570.060608 455.843781,584.750793 450.742645,603.273804
	C467.214417,574.884766 487.877808,551.312622 520.742188,541.586365
	C502.009033,553.596436 485.797485,567.800781 478.015472,589.677490
	C490.922272,573.122925 506.702789,560.233215 525.914490,551.480408
	C512.581116,561.808350 501.613098,573.777283 496.988739,590.578613
	C507.831543,572.745239 522.365173,558.999207 541.080750,549.802979
	C533.086548,558.405579 524.226318,566.211121 520.254272,577.933960
	C525.855652,572.457520 531.185303,566.661987 537.134827,561.594055
	C543.111206,556.503174 549.400757,551.629578 557.325012,549.335815
	C547.482117,559.935852 536.970764,569.896545 532.889526,584.499756
	C548.213684,564.582336 565.584961,547.240479 589.918945,538.528992
	C582.324097,544.347168 574.434998,549.766052 567.812988,556.783325
	C561.053345,563.946472 555.295471,571.719849 550.294495,581.650879
	C564.967346,569.667297 577.417847,557.219971 588.630005,543.595276
	C612.774170,514.255920 629.630432,481.034149 640.393188,444.670837
	C649.059021,415.392303 652.346558,385.449860 652.005554,354.951843
	C651.634766,321.791656 645.619141,289.771729 634.082703,258.764038
	C632.546143,254.634186 633.187073,252.812256 637.495667,251.607315
	C643.258240,249.995697 648.895020,247.891693 654.497314,245.766037
	C657.418823,244.657562 659.025330,245.096542 660.158875,248.227661
	C668.223511,270.503845 674.349304,293.234589 677.408264,316.786133
	C680.465332,340.323822 681.398987,363.918549 679.185181,387.529327
	C675.266541,429.323120 664.953857,469.329376 645.512695,506.842194
	C627.112061,542.347412 602.875183,573.200256 573.022339,599.636780
	C542.973083,626.247131 508.590912,645.583679 470.883514,659.136353
	C443.961060,668.812683 416.335602,675.264465 387.290833,677.382263
M302.165314,150.216934
	C297.864136,151.672668 293.318481,152.601364 289.155853,155.741531
	C295.144928,160.461044 302.965118,157.569946 308.841553,161.952362
	C303.343658,166.732040 296.108887,166.178528 290.662354,170.142349
	C294.445496,174.826233 301.060059,172.098724 305.209717,176.067871
	C300.054779,180.024567 292.956177,177.547485 288.306702,182.483292
	C293.085083,186.683258 299.605286,183.227676 304.374878,187.240433
	C299.800659,190.182297 294.245789,189.796036 289.835205,192.956589
	C294.377045,196.239441 300.390106,193.446381 304.788147,197.361557
	C300.572357,201.335083 294.461426,198.771378 290.603760,202.812469
	C293.962952,206.233490 299.148926,203.857712 302.582489,206.563461
	C301.076538,209.229141 297.440247,207.456818 296.715668,210.655396
	C299.448303,215.089035 303.727936,214.251740 307.761169,213.387482
	C311.572540,212.570801 312.801697,209.814102 312.855682,205.935699
	C313.003906,195.283142 313.479736,184.634583 313.893219,173.987045
	C313.945465,172.641968 313.267822,170.916382 315.468170,169.986450
	C317.688019,175.230560 317.497070,181.306107 321.409546,186.959198
	C336.301666,152.587326 338.908569,117.103714 339.790253,80.731552
	C338.437775,81.229362 337.866669,81.268776 337.592377,81.574509
	C336.932587,82.309845 336.346985,83.131790 335.844727,83.985458
	C327.044861,98.942596 318.948334,114.267891 313.510193,130.792648
	C311.994202,135.399307 309.779724,137.889114 304.938263,137.977081
	C303.279877,138.007202 301.552185,138.057114 299.986420,138.529602
	C296.989502,139.434006 293.344635,138.863770 290.902252,141.964432
	C293.885895,145.339508 297.818359,145.664124 301.411011,146.801224
	C302.802063,147.241516 306.021973,147.356842 302.165314,150.216934
M312.574188,324.924988
	C312.603912,322.094666 312.527008,319.258118 312.691040,316.435608
	C312.885864,313.083771 311.602325,311.812378 308.243469,312.640320
	C304.047241,313.674622 299.805878,314.525513 295.607697,315.552338
	C294.367645,315.855591 292.779999,316.077301 292.594574,317.724792
	C292.404602,319.412903 293.614838,320.437378 294.890350,321.310272
	C296.600098,322.480316 299.244751,322.102814 300.338043,324.664703
	C297.996124,327.523895 293.598724,325.936188 291.032684,328.819672
	C293.895416,332.232391 299.259918,330.266785 302.085480,333.967438
	C298.438965,338.099854 291.940674,335.193604 288.889038,339.734467
	C289.913269,341.808685 291.762207,341.583344 293.285309,342.083344
	C294.892029,342.610870 297.057739,342.113129 297.984619,344.627930
	C294.920044,346.176422 290.487518,344.719360 288.407837,348.764587
	C292.373901,353.434021 298.731506,351.621765 303.854950,354.435059
	C299.583099,357.998016 294.505707,358.481903 289.472931,361.495300
	C296.507935,361.604736 301.879181,362.752472 305.579773,367.972137
	C307.401428,370.541595 307.309448,372.092560 304.147949,373.135315
	C299.881348,374.542511 295.632080,375.985840 291.105194,376.299286
	C288.862122,376.454590 286.628723,376.613953 284.752289,378.729736
	C290.498260,382.790039 297.494843,381.391724 304.262299,384.330536
	C298.123749,387.037994 292.099060,385.504028 286.635468,388.392426
	C290.958527,392.853973 297.568390,391.240723 301.997772,394.696503
	C299.892792,397.793701 295.523407,396.354034 293.640289,400.377686
	C301.546234,402.796692 309.087677,401.599182 317.038300,400.925415
	C312.249725,396.460907 312.990204,390.949158 312.923370,385.661041
	C312.826599,378.002289 312.656097,370.339691 312.800018,362.684052
	C312.924377,356.068359 312.065521,349.765961 308.784058,343.905823
	C306.451324,339.739899 306.099030,335.753296 310.063293,332.189026
	C311.920349,330.519348 312.093384,328.074615 312.574188,324.924988
M295.169617,512.934570
	C297.281311,513.694702 300.200928,512.610168 301.653046,515.747986
	C296.156525,518.579346 289.773132,516.112976 284.310547,519.135315
	C289.639526,522.564758 296.123505,521.633850 302.077728,525.253967
	C295.038818,527.813477 288.154877,526.811523 281.995178,530.334656
	C288.088470,534.179199 294.838196,533.075928 301.213806,535.856628
	C296.041077,539.467529 290.083252,537.530762 285.264862,540.690369
	C289.809113,544.252197 295.695190,543.798401 301.279419,546.501953
	C294.601990,550.299500 286.891571,548.203491 281.429413,553.415283
	C285.153198,555.952209 289.456207,555.504089 292.987183,557.436401
	C291.599609,559.591553 289.532562,558.660889 287.865051,559.058594
	C286.321930,559.426636 284.268280,558.868286 283.650940,560.965149
	C283.048279,563.012268 284.418884,564.483459 285.747559,565.735229
	C287.979675,567.838135 290.719696,569.139709 293.712189,569.667480
	C298.133850,570.447144 302.579590,571.192688 307.047363,571.564819
	C309.215302,571.745361 312.813873,572.989685 312.631042,568.875000
	C312.472809,565.313171 314.448669,560.546570 308.557404,559.050537
	C305.999115,558.400879 302.966766,559.197510 300.817047,557.138367
	C301.268829,555.606140 302.401917,555.578064 303.299866,555.283752
	C311.260345,552.674072 311.987305,551.645447 311.497894,543.212463
	C311.382172,541.218201 311.860352,538.578430 310.787842,537.359375
	C306.704834,532.718079 309.459961,528.663635 310.247620,523.821472
	C311.607422,515.462097 310.906006,506.733612 309.701721,497.111206
	C301.599701,508.029846 288.190491,502.567444 278.221985,509.212921
	C283.859589,511.841644 289.018188,512.618347 295.169617,512.934570
M300.602905,246.818314
	C301.954407,247.335739 303.628052,247.459061 303.836182,249.621841
	C300.977173,252.751358 295.773926,250.590805 292.735901,254.020844
	C295.810455,257.927551 301.584320,255.476105 304.861725,259.299286
	C299.597260,262.142578 293.468201,260.714722 288.872589,264.764832
	C293.717255,268.377686 299.999908,266.004272 304.851837,269.553772
	C300.634644,273.278656 294.823517,270.802979 290.264587,274.248840
	C294.679108,278.400482 299.827698,280.632446 304.723175,283.246552
	C306.061157,283.960999 307.547394,284.684174 307.299255,286.518646
	C307.081512,288.128448 305.502563,288.315063 304.290619,288.779236
	C300.642242,290.176605 296.520386,290.229492 292.993683,292.469910
	C296.608429,294.551422 301.321472,292.838287 304.833740,296.765961
	C300.733612,297.348358 297.466858,297.781738 294.211121,298.286224
	C292.228943,298.593353 289.841095,298.876434 289.651459,301.317017
	C289.476166,303.573395 291.581024,304.746155 293.411194,305.503845
	C298.097992,307.444183 303.075256,307.800323 308.101501,307.913239
	C311.579529,307.991333 312.703644,306.412659 312.742371,303.071625
	C313.035706,277.770569 313.461578,252.471069 313.788574,227.170334
	C313.804016,225.975906 314.359741,224.515747 312.752075,223.334213
	C307.498993,231.394363 297.499298,229.396500 289.896240,233.905975
	C294.547882,236.485764 299.855438,235.262878 304.052979,238.283249
	C301.078766,241.941071 295.704590,239.760330 293.006256,243.415802
	C294.969208,245.574844 297.547577,245.818680 300.602905,246.818314
M305.989777,436.468506
	C310.316132,433.498596 310.481537,428.816132 310.473114,424.383728
	C310.448303,411.282898 310.278351,411.565338 297.034454,412.759857
	C293.369202,413.090454 289.125763,413.521362 286.809509,417.778473
	C291.769745,420.153290 297.542175,418.846344 302.522186,422.512604
	C297.305908,426.257477 290.344513,425.959778 286.319397,431.123871
	C289.392029,434.028351 293.978180,431.744263 296.373871,435.076965
	C294.603363,437.126709 291.366302,435.662140 290.184906,438.467224
	C292.456360,442.215912 297.693939,440.327179 300.487671,443.575073
	C296.014191,447.261841 288.794250,443.035004 285.281616,449.056702
	C294.076080,453.837921 304.090149,452.660614 310.294952,446.396820
	C312.909027,443.757935 311.828003,442.134369 309.061157,440.663086
	C307.550842,439.859955 304.635498,440.271393 305.989777,436.468506
M290.633087,584.831604
	C295.441284,587.312256 301.160309,587.335266 306.647064,590.441711
	C301.671326,594.112732 295.865417,594.026184 291.093384,596.776611
	C292.534393,598.031494 293.690796,598.960205 294.753479,599.986023
	C295.805603,601.001709 296.763214,602.115295 297.744843,603.167297
	C304.722321,597.791321 304.817871,597.875671 309.654938,605.661560
	C312.119995,609.629456 313.984680,614.094788 317.733765,617.122803
	C319.087982,616.123901 318.794037,615.042542 318.665314,614.123962
	C317.030090,602.456665 315.338501,590.797302 313.677399,579.133606
	C313.213806,575.878235 310.962250,575.256348 308.222931,575.396729
	C301.090851,575.762207 293.940216,575.959045 286.841522,576.668518
	C284.637115,576.888855 281.865234,576.548950 279.880524,578.832886
	C282.695129,582.091187 286.596069,582.836975 290.633087,584.831604
M302.049225,479.939392
	C306.957916,482.359375 301.642853,484.451569 301.752838,486.792511
	C303.500214,489.420502 305.912354,490.819458 309.811188,491.365906
	C309.811188,480.958496 309.866089,471.030365 309.774078,461.103577
	C309.749908,458.493317 307.426727,457.956787 305.494171,457.710052
	C299.322235,456.921997 293.261383,458.217743 287.192749,459.093964
	C286.045380,459.259613 284.863281,459.769958 284.668945,461.159973
	C284.476318,462.537201 285.528351,463.270599 286.487000,463.905945
	C289.290070,465.763672 292.437988,466.756775 295.636841,467.755280
	C298.033813,468.503479 301.021545,467.840576 303.058258,470.452240
	C300.140808,474.041840 294.316223,472.580322 291.849762,476.867523
	C294.555634,479.911865 298.016876,479.488556 302.049225,479.939392
z"/>
<path fill="#F6F7EB" opacity="1.000000" stroke="none"
	d="
M468.003235,318.954407
	C482.410004,318.231628 491.729553,323.059998 495.708191,333.002899
	C483.282471,339.711609 471.148987,331.385742 466.803833,321.636627
	C466.373993,320.672180 466.584442,319.677887 468.003235,318.954407
z"/>
<path fill="#F6F7EB" opacity="1.000000" stroke="none"
	d="
M403.087585,346.008240
	C399.758087,342.276276 396.827179,338.723145 396.074738,333.933563
	C407.049835,330.186737 420.839813,337.689240 424.000610,349.364288
	C416.610504,351.234009 409.680695,351.201569 403.087585,346.008240
z"/>
<path fill="#F6F7EB" opacity="1.000000" stroke="none"
	d="
M593.645569,209.612305
	C596.369934,210.465500 596.854553,211.641388 595.155029,213.691528
	C589.625610,220.361557 578.097778,222.332596 569.691956,217.604187
	C576.234314,210.559418 583.814453,207.441559 593.645569,209.612305
z"/>
<path fill="#F6F7EB" opacity="1.000000" stroke="none"
	d="
M559.971191,259.525513
	C564.624512,261.366211 568.018799,264.006409 569.888123,268.334381
	C562.363098,273.432861 549.671631,269.904022 545.393433,261.293701
	C549.910645,258.799652 554.650024,258.533875 559.971191,259.525513
z"/>
</svg>
